<mxfile host="app.diagrams.net" modified="2022-05-18T08:04:25.764Z" agent="5.0 (Macintosh; Intel Mac OS X 10_15_7) AppleWebKit/537.36 (KHTML, like Gecko) Chrome/101.0.4951.64 Safari/537.36" etag="0WoPHRoVnhDPYPoGt1nH" version="18.0.5" type="github">
  <diagram id="xTvuejeEoxaPUqmn2vin" name="Page-1">
    <mxGraphModel dx="946" dy="614" grid="1" gridSize="10" guides="1" tooltips="1" connect="1" arrows="1" fold="1" page="1" pageScale="1" pageWidth="850" pageHeight="1100" math="0" shadow="0">
      <root>
        <mxCell id="0" />
        <mxCell id="1" parent="0" />
        <mxCell id="zmyZIJQVKqweHYzE5S6Y-2" value="Start" style="ellipse;whiteSpace=wrap;html=1;" parent="1" vertex="1">
          <mxGeometry x="210" y="200" width="120" height="80" as="geometry" />
        </mxCell>
        <mxCell id="zmyZIJQVKqweHYzE5S6Y-3" value="" style="endArrow=classic;html=1;rounded=0;" parent="1" source="zmyZIJQVKqweHYzE5S6Y-2" target="zmyZIJQVKqweHYzE5S6Y-4" edge="1">
          <mxGeometry width="50" height="50" relative="1" as="geometry">
            <mxPoint x="250" y="270" as="sourcePoint" />
            <mxPoint x="270" y="330" as="targetPoint" />
          </mxGeometry>
        </mxCell>
        <mxCell id="zmyZIJQVKqweHYzE5S6Y-4" value="Input Number 1,&amp;nbsp;&lt;br&gt;Number 2" style="shape=parallelogram;perimeter=parallelogramPerimeter;whiteSpace=wrap;html=1;fixedSize=1;" parent="1" vertex="1">
          <mxGeometry x="210" y="300" width="120" height="60" as="geometry" />
        </mxCell>
        <mxCell id="zmyZIJQVKqweHYzE5S6Y-5" value="" style="endArrow=classic;html=1;rounded=0;exitX=0.417;exitY=1.017;exitDx=0;exitDy=0;exitPerimeter=0;" parent="1" source="zmyZIJQVKqweHYzE5S6Y-4" target="zmyZIJQVKqweHYzE5S6Y-6" edge="1">
          <mxGeometry width="50" height="50" relative="1" as="geometry">
            <mxPoint x="240" y="410" as="sourcePoint" />
            <mxPoint x="260" y="400" as="targetPoint" />
          </mxGeometry>
        </mxCell>
        <mxCell id="zmyZIJQVKqweHYzE5S6Y-6" value="Sum = Number1 + Number 2" style="rounded=0;whiteSpace=wrap;html=1;" parent="1" vertex="1">
          <mxGeometry x="200" y="400" width="120" height="60" as="geometry" />
        </mxCell>
        <mxCell id="zmyZIJQVKqweHYzE5S6Y-7" value="" style="endArrow=classic;html=1;rounded=0;" parent="1" target="zmyZIJQVKqweHYzE5S6Y-9" edge="1">
          <mxGeometry width="50" height="50" relative="1" as="geometry">
            <mxPoint x="260" y="470" as="sourcePoint" />
            <mxPoint x="260" y="510" as="targetPoint" />
          </mxGeometry>
        </mxCell>
        <mxCell id="zmyZIJQVKqweHYzE5S6Y-9" value="Print Sum&amp;nbsp;" style="shape=parallelogram;perimeter=parallelogramPerimeter;whiteSpace=wrap;html=1;fixedSize=1;" parent="1" vertex="1">
          <mxGeometry x="200" y="480" width="120" height="60" as="geometry" />
        </mxCell>
        <mxCell id="zmyZIJQVKqweHYzE5S6Y-10" value="" style="endArrow=classic;html=1;rounded=0;exitX=0.433;exitY=0.992;exitDx=0;exitDy=0;exitPerimeter=0;" parent="1" source="zmyZIJQVKqweHYzE5S6Y-9" edge="1">
          <mxGeometry width="50" height="50" relative="1" as="geometry">
            <mxPoint x="230" y="590" as="sourcePoint" />
            <mxPoint x="252" y="590" as="targetPoint" />
          </mxGeometry>
        </mxCell>
        <mxCell id="zmyZIJQVKqweHYzE5S6Y-11" value="End" style="ellipse;whiteSpace=wrap;html=1;" parent="1" vertex="1">
          <mxGeometry x="190" y="590" width="120" height="80" as="geometry" />
        </mxCell>
      </root>
    </mxGraphModel>
  </diagram>
</mxfile>
